<?xml version="1.0" encoding="iso-8859-1"?>
<!-- Uploaded to: SVG Repo, www.svgrepo.com, Generator: SVG Repo Mixer Tools -->
<svg height="800px" width="800px" version="1.1" id="Layer_1" xmlns="http://www.w3.org/2000/svg" xmlns:xlink="http://www.w3.org/1999/xlink" 
	viewBox="0 0 495 495" xml:space="preserve">
<g>
	<polygon style="fill:#2c4b55;" points="227.5,379.133 227.5,267.5 115.865,267.5 115.865,227.5 227.5,227.5 227.5,115.867 
		247.5,115.867 247.5,0 0,0 0,495 247.5,495 247.5,379.133 	"/>
	<polygon style="fill:#2c4b55;" points="247.5,0 247.5,115.867 267.5,115.867 267.5,227.5 379.135,227.5 379.135,267.5 267.5,267.5 
		267.5,379.133 247.5,379.133 247.5,495 495,495 495,0 	"/>
	<polygon style="fill:#c7d9df;" points="227.5,227.5 115.865,227.5 115.865,267.5 227.5,267.5 227.5,379.133 267.5,379.133 
		267.5,267.5 379.135,267.5 379.135,227.5 267.5,227.5 267.5,115.867 227.5,115.867 	"/>
</g>
</svg>